[h264 @ 0x564a49e5cec0] Reinit context to 848x480, pix_fmt: yuv420p
Input #0, mov,mp4,m4a,3gp,3g2,mj2, from '/var/www/html/project/media/video/original/IMG_6563_T5mxYS9.MOV':
  Metadata:
    major_brand     : qt  
    minor_version   : 0
    compatible_brands: qt  
    creation_time   : 2022-07-04T19:20:06.000000Z
  Duration: 00:00:31.21, start: 0.000000, bitrate: 1668 kb/s
    Stream #0:0(und): Audio: aac (LC) (mp4a / 0x6134706D), 44100 Hz, stereo, fltp, 63 kb/s (default)
    Metadata:
      creation_time   : 2022-07-04T19:20:06.000000Z
      handler_name    : Core Media Audio
    Stream #0:1(und): Video: h264 (Baseline), 1 reference frame (avc1 / 0x31637661), yuv420p(tv, bt709, progressive, left), 848x480, 1601 kb/s, 29.97 fps, 29.97 tbr, 600 tbn, 1200 tbc (default)
    Metadata:
      rotate          : 90
      creation_time   : 2022-07-04T19:20:06.000000Z
      handler_name    : Core Media Video
      encoder         : 'avc1'
    Side data:
      displaymatrix: rotation of -90.00 degrees
Input #1, png_pipe, from '/var/www/html/project/static/images/templates/logo_vertical.png':
  Duration: N/A, bitrate: N/A
    Stream #1:0: Video: png, 1 reference frame, rgba(pc), 1920x1080 [SAR 2835:2835 DAR 16:9], 25 tbr, 25 tbn, 25 tbc
[h264 @ 0x564a49eaa6c0] Reinit context to 1280x720, pix_fmt: yuv420p
Input #2, mov,mp4,m4a,3gp,3g2,mj2, from '/var/www/html/project/static/images/templates/Codino.mp4':
  Metadata:
    major_brand     : mp42
    minor_version   : 1
    compatible_brands: isommp41mp42
    creation_time   : 2021-07-11T07:02:58.000000Z
  Duration: 00:00:02.00, start: 0.000000, bitrate: 1007 kb/s
    Stream #2:0(ita): Audio: aac (LC) (mp4a / 0x6134706D), 44100 Hz, stereo, fltp, 102 kb/s (default)
    Metadata:
      creation_time   : 2021-07-11T07:02:58.000000Z
      handler_name    : Core Media Audio
    Stream #2:1(und): Video: h264 (High), 1 reference frame (avc1 / 0x31637661), yuv420p(tv, bt709, progressive, left), 1280x720 [SAR 1:1 DAR 16:9], 813 kb/s, 25 fps, 25 tbr, 25k tbn, 50k tbc (default)
    Metadata:
      creation_time   : 2021-07-11T07:02:58.000000Z
      handler_name    : Core Media Video
[Parsed_scale_1 @ 0x564a49f9b180] w:1280 h:720 flags:'bilinear' interl:0
[Parsed_scale_4 @ 0x564a49f9adc0] w:-1 h:720 flags:'bilinear' interl:0
[Parsed_scale_7 @ 0x564a49eb1a00] w:1280 h:720 flags:'bilinear' interl:0
[Parsed_scale_9 @ 0x564a4a01bdc0] w:1280 h:720 flags:'bilinear' interl:0
Stream mapping:
  Stream #0:0 (aac) -> concat:in0:a0
  Stream #0:1 (h264) -> split
  Stream #1:0 (png) -> scale
  Stream #2:0 (aac) -> concat:in1:a0
  Stream #2:1 (h264) -> scale
  concat:out:v0 -> Stream #0:0 (libx264)
  concat:out:a0 -> Stream #0:1 (aac)
Press [q] to stop, [?] for help
[h264 @ 0x564a49ea9580] Reinit context to 848x480, pix_fmt: yuv420p
[h264 @ 0x564a4a28b300] Reinit context to 1280x720, pix_fmt: yuv420p
[Parsed_scale_1 @ 0x564a4af11f80] w:1280 h:720 flags:'bilinear' interl:0
[Parsed_scale_4 @ 0x564a4af1bec0] w:-1 h:720 flags:'bilinear' interl:0
[Parsed_scale_7 @ 0x564a4af1fb40] w:1280 h:720 flags:'bilinear' interl:0
[Parsed_scale_9 @ 0x564a4af21200] w:1280 h:720 flags:'bilinear' interl:0
[graph 0 input from stream 0:1 @ 0x564a4af25a00] w:848 h:480 pixfmt:yuv420p tb:1/600 fr:30000/1001 sar:0/1 sws_param:flags=2
[graph 0 input from stream 1:0 @ 0x564a4af25900] w:1920 h:1080 pixfmt:rgba tb:1/25 fr:25/1 sar:2835/2835 sws_param:flags=2
[graph 0 input from stream 2:1 @ 0x564a4af20b00] w:1280 h:720 pixfmt:yuv420p tb:1/25000 fr:25/1 sar:1/1 sws_param:flags=2
[graph_0_in_0_0 @ 0x564a4af1c180] tb:1/44100 samplefmt:fltp samplerate:44100 chlayout:0x3
[graph_0_in_2_0 @ 0x564a49fd3980] tb:1/44100 samplefmt:fltp samplerate:44100 chlayout:0x3
[transpose @ 0x564a4af26800] w:848 h:480 dir:1 -> w:480 h:848 rotation:clockwise vflip:0
[Parsed_scale_1 @ 0x564a4af11f80] w:480 h:848 fmt:yuv420p sar:0/1 -> w:1280 h:720 fmt:yuv420p sar:0/1 flags:0x2
[Parsed_boxblur_2 @ 0x564a49fd2ec0] luma_radius:36 luma_power:1 chroma_radius:18 chroma_power:1 alpha_radius:36 alpha_power:1 w:1280 chroma_w:640 h:720 chroma_h:360
[Parsed_setsar_3 @ 0x564a4af1c280] w:1280 h:720 sar:0/1 dar:16/9 -> sar:1/1 dar:16/9
[Parsed_scale_4 @ 0x564a4af1bec0] w:480 h:848 fmt:yuv420p sar:0/1 -> w:408 h:720 fmt:yuva420p sar:0/1 flags:0x2
[Parsed_setsar_5 @ 0x564a49fd3240] w:408 h:720 sar:0/1 dar:17/30 -> sar:1/1 dar:17/30
[Parsed_overlay_6 @ 0x564a4af1e700] main w:1280 h:720 fmt:yuv420p overlay w:408 h:720 fmt:yuva420p
[Parsed_overlay_6 @ 0x564a4af1e700] [framesync @ 0x564a4af1ed28] Selected 1/600 time base
[Parsed_overlay_6 @ 0x564a4af1e700] [framesync @ 0x564a4af1ed28] Sync level 2
[Parsed_scale_7 @ 0x564a4af1fb40] w:1920 h:1080 fmt:rgba sar:2835/2835 -> w:1280 h:720 fmt:yuva420p sar:1/1 flags:0x2
[Parsed_setsar_8 @ 0x564a4af20600] w:1280 h:720 sar:1/1 dar:16/9 -> sar:1/1 dar:16/9
[Parsed_overlay_11 @ 0x564a4af22a00] main w:1280 h:720 fmt:yuv420p overlay w:1280 h:720 fmt:yuva420p
[Parsed_overlay_11 @ 0x564a4af22a00] [framesync @ 0x564a4af22b28] Selected 1/600 time base
[Parsed_overlay_11 @ 0x564a4af22a00] [framesync @ 0x564a4af22b28] Sync level 2
[Parsed_scale_9 @ 0x564a4af21200] w:1280 h:720 fmt:yuv420p sar:1/1 -> w:1280 h:720 fmt:yuv420p sar:1/1 flags:0x2
[Parsed_setsar_10 @ 0x564a4af21d00] w:1280 h:720 sar:1/1 dar:16/9 -> sar:1/1 dar:16/9
[libx264 @ 0x564a49eb1f40] using SAR=1/1
[libx264 @ 0x564a49eb1f40] using cpu capabilities: MMX2 SSE2Fast SSSE3 SSE4.2 AVX FMA3 BMI2 AVX2
[libx264 @ 0x564a49eb1f40] profile High, level 3.1
[libx264 @ 0x564a49eb1f40] 264 - core 155 r2917 0a84d98 - H.264/MPEG-4 AVC codec - Copyleft 2003-2018 - http://www.videolan.org/x264.html - options: cabac=1 ref=1 deblock=1:0:0 analyse=0x3:0x113 me=hex subme=2 psy=1 psy_rd=1.00:0.00 mixed_ref=0 me_range=16 chroma_me=1 trellis=0 8x8dct=1 cqm=0 deadzone=21,11 fast_pskip=1 chroma_qp_offset=0 threads=22 lookahead_threads=5 sliced_threads=0 nr=0 decimate=1 interlaced=0 bluray_compat=0 constrained_intra=0 bframes=3 b_pyramid=2 b_adapt=1 b_bias=0 direct=1 weightb=1 open_gop=0 weightp=1 keyint=250 keyint_min=25 scenecut=40 intra_refresh=0 rc_lookahead=10 rc=crf mbtree=1 crf=18.0 qcomp=0.60 qpmin=0 qpmax=69 qpstep=4 ip_ratio=1.40 aq=1:1.00
Output #0, mp4, to '/var/www/html/project/media/video/watermarks/IMG_6563_T5mxYS9.mp4':
  Metadata:
    major_brand     : qt  
    minor_version   : 0
    compatible_brands: qt  
    encoder         : Lavf58.29.100
    Stream #0:0: Video: h264 (libx264), 1 reference frame (avc1 / 0x31637661), yuv420p(progressive), 1280x720 [SAR 1:1 DAR 16:9], q=-1--1, 29.97 fps, 30k tbn, 29.97 tbc (default)
    Metadata:
      encoder         : Lavc58.54.100 libx264
    Side data:
      cpb: bitrate max/min/avg: 0/0/0 buffer size: 0 vbv_delay: -1
    Stream #0:1: Audio: aac (LC) (mp4a / 0x6134706D), 44100 Hz, stereo, fltp, delay 1024, 128 kb/s (default)
    Metadata:
      encoder         : Lavc58.54.100 aac
[Parsed_concat_12 @ 0x564a4af23a80] EOF on in0:a0, 1 streams left in segment.
[Parsed_overlay_6 @ 0x564a4af1e700] [framesync @ 0x564a4af1ed28] Sync level 1
[Parsed_overlay_6 @ 0x564a4af1e700] [framesync @ 0x564a4af1ed28] Sync level 0
[Parsed_overlay_11 @ 0x564a4af22a00] [framesync @ 0x564a4af22b28] Sync level 0
[Parsed_concat_12 @ 0x564a4af23a80] EOF on in0:v0, 0 streams left in segment.
[Parsed_concat_12 @ 0x564a4af23a80] Segment finished at pts=31207619
[Parsed_concat_12 @ 0x564a4af23a80] EOF on in1:a0, 1 streams left in segment.
[Parsed_concat_12 @ 0x564a4af23a80] EOF on in1:v0, 0 streams left in segment.
[Parsed_concat_12 @ 0x564a4af23a80] Segment finished at pts=33226304
No more output streams to write to, finishing.
frame=  985 fps= 63 q=-1.0 Lsize=   11921kB time=00:00:33.22 bitrate=2938.9kbits/s speed=2.14x    
[AVIOContext @ 0x564a49e59500] Statistics: 0 seeks, 31 writeouts
video:11369kB audio:516kB subtitle:0kB other streams:0kB global headers:0kB muxing overhead: 0.304517%
Input file #0 (/var/www/html/project/media/video/original/IMG_6563_T5mxYS9.MOV):
  Input stream #0:0 (audio): 1344 packets read (247714 bytes); 1344 frames decoded (1376256 samples); 
  Input stream #0:1 (video): 935 packets read (6246188 bytes); 935 frames decoded; 
  Total: 2279 packets (6493902 bytes) demuxed
Input file #1 (/var/www/html/project/static/images/templates/logo_vertical.png):
  Input stream #1:0 (video): 1 packets read (93903 bytes); 1 frames decoded; 
  Total: 1 packets (93903 bytes) demuxed
Input file #2 (/var/www/html/project/static/images/templates/Codino.mp4):
  Input stream #2:0 (audio): 89 packets read (26579 bytes); 87 frames decoded (89024 samples); 
  Input stream #2:1 (video): 50 packets read (203365 bytes); 50 frames decoded; 
  Total: 139 packets (229944 bytes) demuxed
Output file #0 (/var/www/html/project/media/video/watermarks/IMG_6563_T5mxYS9.mp4):
  Output stream #0:0 (video): 985 frames encoded; 985 packets muxed (11641492 bytes); 
  Output stream #0:1 (audio): 1431 frames encoded (1465280 samples); 1432 packets muxed (528268 bytes); 
  Total: 2417 packets (12169760 bytes) muxed
[AVIOContext @ 0x564a49f9b180] Statistics: 2 seeks, 50 writeouts
[libx264 @ 0x564a49eb1f40] frame I:5     Avg QP:13.51  size: 59162
[libx264 @ 0x564a49eb1f40] frame P:280   Avg QP:17.47  size: 23744
[libx264 @ 0x564a49eb1f40] frame B:700   Avg QP:19.04  size:  6710
[libx264 @ 0x564a49eb1f40] consecutive B-frames:  2.7%  5.5%  6.1% 85.7%
[libx264 @ 0x564a49eb1f40] mb I  I16..4: 40.6% 32.5% 26.9%
[libx264 @ 0x564a49eb1f40] mb P  I16..4: 21.5% 24.9%  2.8%  P16..4: 19.5% 10.1%  5.4%  0.0%  0.0%    skip:15.9%
[libx264 @ 0x564a49eb1f40] mb B  I16..4:  4.5%  2.0%  0.1%  B16..8: 22.7%  8.6%  0.9%  direct:11.7%  skip:49.5%  L0:44.1% L1:44.8% BI:11.0%
[libx264 @ 0x564a49eb1f40] 8x8 transform intra:45.1% inter:27.8%
[libx264 @ 0x564a49eb1f40] coded y,uvDC,uvAC intra: 26.9% 49.1% 7.8% inter: 9.1% 21.9% 0.6%
[libx264 @ 0x564a49eb1f40] i16 v,h,dc,p: 21% 39% 11% 29%
[libx264 @ 0x564a49eb1f40] i8 v,h,dc,ddl,ddr,vr,hd,vl,hu: 12% 41% 18%  3%  6%  4%  9%  3%  4%
[libx264 @ 0x564a49eb1f40] i4 v,h,dc,ddl,ddr,vr,hd,vl,hu: 23% 21% 19%  5% 10%  7%  8%  4%  4%
[libx264 @ 0x564a49eb1f40] i8c dc,h,v,p: 43% 36% 11% 10%
[libx264 @ 0x564a49eb1f40] Weighted P-Frames: Y:4.3% UV:0.4%
[libx264 @ 0x564a49eb1f40] kb/s:2805.03
[aac @ 0x564a4a01f1c0] Qavg: 1615.408
[AVIOContext @ 0x564a49e624c0] Statistics: 60353543 bytes read, 1828 seeks
[AVIOContext @ 0x564a49ec1380] Statistics: 93903 bytes read, 0 seeks
[AVIOContext @ 0x564a49ec1100] Statistics: 1530915 bytes read, 42 seeks
